<mxfile host="app.diagrams.net" modified="2024-05-10T04:05:00.854Z" agent="Mozilla/5.0 (Windows NT 10.0; Win64; x64) AppleWebKit/537.36 (KHTML, like Gecko) Chrome/122.0.0.0 Safari/537.36" etag="iCrDbP3bPUaat-72doq-" version="24.3.1" type="github">
  <diagram id="C5RBs43oDa-KdzZeNtuy" name="Page-1">
    <mxGraphModel dx="500" dy="265" grid="1" gridSize="10" guides="1" tooltips="1" connect="1" arrows="1" fold="1" page="1" pageScale="1" pageWidth="827" pageHeight="1169" math="0" shadow="0">
      <root>
        <mxCell id="WIyWlLk6GJQsqaUBKTNV-0" />
        <mxCell id="WIyWlLk6GJQsqaUBKTNV-1" parent="WIyWlLk6GJQsqaUBKTNV-0" />
        <mxCell id="ldP8O9bozDBlURNdbHYL-0" value="Attribute:&lt;div&gt;lowerCamelCase&lt;/div&gt;" style="text;strokeColor=none;align=center;fillColor=none;html=1;verticalAlign=middle;whiteSpace=wrap;rounded=0;" parent="WIyWlLk6GJQsqaUBKTNV-1" vertex="1">
          <mxGeometry x="90" y="160" width="60" height="30" as="geometry" />
        </mxCell>
        <mxCell id="ldP8O9bozDBlURNdbHYL-1" value="&lt;div&gt;Class name&lt;/div&gt;&lt;div&gt;CamelCase or snake_case&lt;/div&gt;" style="text;html=1;align=center;verticalAlign=middle;resizable=0;points=[];autosize=1;strokeColor=none;fillColor=none;" parent="WIyWlLk6GJQsqaUBKTNV-1" vertex="1">
          <mxGeometry x="35" y="110" width="170" height="40" as="geometry" />
        </mxCell>
        <mxCell id="ldP8O9bozDBlURNdbHYL-2" value="Methods&lt;div&gt;lowerCamelCase()&lt;/div&gt;" style="text;html=1;align=center;verticalAlign=middle;resizable=0;points=[];autosize=1;strokeColor=none;fillColor=none;" parent="WIyWlLk6GJQsqaUBKTNV-1" vertex="1">
          <mxGeometry x="60" y="218" width="120" height="40" as="geometry" />
        </mxCell>
        <mxCell id="ldP8O9bozDBlURNdbHYL-3" value="" style="endArrow=classic;html=1;rounded=0;" parent="WIyWlLk6GJQsqaUBKTNV-1" source="ldP8O9bozDBlURNdbHYL-2" edge="1">
          <mxGeometry width="50" height="50" relative="1" as="geometry">
            <mxPoint x="390" y="320" as="sourcePoint" />
            <mxPoint x="210" y="238" as="targetPoint" />
          </mxGeometry>
        </mxCell>
        <mxCell id="ldP8O9bozDBlURNdbHYL-4" value="" style="endArrow=classic;html=1;rounded=0;" parent="WIyWlLk6GJQsqaUBKTNV-1" edge="1">
          <mxGeometry width="50" height="50" relative="1" as="geometry">
            <mxPoint x="180" y="175.5" as="sourcePoint" />
            <mxPoint x="210" y="176" as="targetPoint" />
          </mxGeometry>
        </mxCell>
        <mxCell id="ldP8O9bozDBlURNdbHYL-5" value="" style="endArrow=classic;html=1;rounded=0;" parent="WIyWlLk6GJQsqaUBKTNV-1" edge="1">
          <mxGeometry width="50" height="50" relative="1" as="geometry">
            <mxPoint x="184" y="130.5" as="sourcePoint" />
            <mxPoint x="210" y="130" as="targetPoint" />
          </mxGeometry>
        </mxCell>
        <mxCell id="ldP8O9bozDBlURNdbHYL-6" value="&lt;b&gt;Visibility&lt;/b&gt;&lt;div&gt;+ : public (anyone)&lt;/div&gt;&lt;div&gt;- : private (only the same class)&lt;/div&gt;&lt;div&gt;# : protected (only subclasses)&lt;/div&gt;&lt;div&gt;~ : package (as a folder)&lt;/div&gt;" style="text;html=1;align=center;verticalAlign=middle;resizable=0;points=[];autosize=1;strokeColor=none;fillColor=none;" parent="WIyWlLk6GJQsqaUBKTNV-1" vertex="1">
          <mxGeometry x="280" y="10" width="190" height="90" as="geometry" />
        </mxCell>
        <mxCell id="ldP8O9bozDBlURNdbHYL-7" value="" style="shape=folder;fontStyle=1;spacingTop=10;tabWidth=40;tabHeight=14;tabPosition=left;html=1;whiteSpace=wrap;" parent="WIyWlLk6GJQsqaUBKTNV-1" vertex="1">
          <mxGeometry x="230" y="90" width="380" height="260" as="geometry" />
        </mxCell>
        <mxCell id="ldP8O9bozDBlURNdbHYL-8" value="Person" style="swimlane;fontStyle=3;align=center;verticalAlign=top;childLayout=stackLayout;horizontal=1;startSize=26;horizontalStack=0;resizeParent=1;resizeLast=0;collapsible=1;marginBottom=0;rounded=0;shadow=0;strokeWidth=1;" parent="WIyWlLk6GJQsqaUBKTNV-1" vertex="1">
          <mxGeometry x="240" y="120" width="160" height="120" as="geometry">
            <mxRectangle x="220" y="120" width="160" height="26" as="alternateBounds" />
          </mxGeometry>
        </mxCell>
        <mxCell id="ldP8O9bozDBlURNdbHYL-9" value="- name: char[ ]" style="text;align=left;verticalAlign=top;spacingLeft=4;spacingRight=4;overflow=hidden;rotatable=0;points=[[0,0.5],[1,0.5]];portConstraint=eastwest;" parent="ldP8O9bozDBlURNdbHYL-8" vertex="1">
          <mxGeometry y="26" width="160" height="26" as="geometry" />
        </mxCell>
        <mxCell id="ldP8O9bozDBlURNdbHYL-10" value="+ age: int&#xa;" style="text;align=left;verticalAlign=top;spacingLeft=4;spacingRight=4;overflow=hidden;rotatable=0;points=[[0,0.5],[1,0.5]];portConstraint=eastwest;rounded=0;shadow=0;html=0;" parent="ldP8O9bozDBlURNdbHYL-8" vertex="1">
          <mxGeometry y="52" width="160" height="26" as="geometry" />
        </mxCell>
        <mxCell id="ldP8O9bozDBlURNdbHYL-11" value="" style="line;html=1;strokeWidth=1;align=left;verticalAlign=middle;spacingTop=-1;spacingLeft=3;spacingRight=3;rotatable=0;labelPosition=right;points=[];portConstraint=eastwest;" parent="ldP8O9bozDBlURNdbHYL-8" vertex="1">
          <mxGeometry y="78" width="160" height="8" as="geometry" />
        </mxCell>
        <mxCell id="ldP8O9bozDBlURNdbHYL-12" value="+ walk(): int" style="text;align=left;verticalAlign=top;spacingLeft=4;spacingRight=4;overflow=hidden;rotatable=0;points=[[0,0.5],[1,0.5]];portConstraint=eastwest;" parent="ldP8O9bozDBlURNdbHYL-8" vertex="1">
          <mxGeometry y="86" width="160" height="26" as="geometry" />
        </mxCell>
        <mxCell id="ldP8O9bozDBlURNdbHYL-13" value="Animal&#xa;" style="swimlane;fontStyle=3;align=center;verticalAlign=top;childLayout=stackLayout;horizontal=1;startSize=30;horizontalStack=0;resizeParent=1;resizeLast=0;collapsible=1;marginBottom=0;rounded=0;shadow=0;strokeWidth=1;" parent="WIyWlLk6GJQsqaUBKTNV-1" vertex="1">
          <mxGeometry x="430" y="120" width="160" height="160" as="geometry">
            <mxRectangle x="430" y="120" width="160" height="26" as="alternateBounds" />
          </mxGeometry>
        </mxCell>
        <mxCell id="ldP8O9bozDBlURNdbHYL-14" value="+ color: char[ ]&#xa;+ specie: char[ ]&#xa;+ size: float&#xa;+ age: int&#xa;+ weight: float&#xa;" style="text;align=left;verticalAlign=top;spacingLeft=4;spacingRight=4;overflow=hidden;rotatable=0;points=[[0,0.5],[1,0.5]];portConstraint=eastwest;" parent="ldP8O9bozDBlURNdbHYL-13" vertex="1">
          <mxGeometry y="30" width="160" height="90" as="geometry" />
        </mxCell>
        <mxCell id="ldP8O9bozDBlURNdbHYL-15" value="" style="line;html=1;strokeWidth=1;align=left;verticalAlign=middle;spacingTop=-1;spacingLeft=3;spacingRight=3;rotatable=0;labelPosition=right;points=[];portConstraint=eastwest;" parent="ldP8O9bozDBlURNdbHYL-13" vertex="1">
          <mxGeometry y="120" width="160" height="8" as="geometry" />
        </mxCell>
        <mxCell id="ldP8O9bozDBlURNdbHYL-16" value="+ walk(): int" style="text;align=left;verticalAlign=top;spacingLeft=4;spacingRight=4;overflow=hidden;rotatable=0;points=[[0,0.5],[1,0.5]];portConstraint=eastwest;" parent="ldP8O9bozDBlURNdbHYL-13" vertex="1">
          <mxGeometry y="128" width="160" height="26" as="geometry" />
        </mxCell>
        <mxCell id="ldP8O9bozDBlURNdbHYL-17" value="&lt;b&gt;Relationships&lt;/b&gt;&lt;div&gt;&lt;br&gt;&lt;div&gt;Association (works with)&lt;/div&gt;&lt;/div&gt;&lt;div&gt;&lt;br&gt;&lt;/div&gt;&lt;div&gt;Inheritance (it is a/an)&lt;/div&gt;&lt;div&gt;&lt;br&gt;&lt;/div&gt;&lt;div&gt;Aggregation (Has a/an)&lt;/div&gt;&lt;div&gt;&lt;br&gt;&lt;/div&gt;&lt;div&gt;Composition (It&#39;s part of)&lt;/div&gt;&lt;div&gt;&lt;br&gt;&lt;/div&gt;&lt;div&gt;Realization/Implementation (Does)&lt;/div&gt;&lt;div&gt;&lt;br&gt;&lt;/div&gt;&lt;div&gt;Dependency (depends on)&lt;/div&gt;" style="text;html=1;align=center;verticalAlign=middle;resizable=0;points=[];autosize=1;strokeColor=none;fillColor=none;" parent="WIyWlLk6GJQsqaUBKTNV-1" vertex="1">
          <mxGeometry x="660" y="29.519999999999982" width="210" height="200" as="geometry" />
        </mxCell>
        <mxCell id="ldP8O9bozDBlURNdbHYL-18" value="Transport" style="swimlane;fontStyle=3;align=center;verticalAlign=top;childLayout=stackLayout;horizontal=1;startSize=26;horizontalStack=0;resizeParent=1;resizeLast=0;collapsible=1;marginBottom=0;rounded=0;shadow=0;strokeWidth=1;" parent="WIyWlLk6GJQsqaUBKTNV-1" vertex="1">
          <mxGeometry x="900" y="20" width="160" height="60" as="geometry">
            <mxRectangle x="220" y="120" width="160" height="26" as="alternateBounds" />
          </mxGeometry>
        </mxCell>
        <mxCell id="ldP8O9bozDBlURNdbHYL-19" value="+ name: char[ ]" style="text;align=left;verticalAlign=top;spacingLeft=4;spacingRight=4;overflow=hidden;rotatable=0;points=[[0,0.5],[1,0.5]];portConstraint=eastwest;" parent="ldP8O9bozDBlURNdbHYL-18" vertex="1">
          <mxGeometry y="26" width="160" height="26" as="geometry" />
        </mxCell>
        <mxCell id="ldP8O9bozDBlURNdbHYL-20" value="Car" style="swimlane;fontStyle=3;align=center;verticalAlign=top;childLayout=stackLayout;horizontal=1;startSize=26;horizontalStack=0;resizeParent=1;resizeLast=0;collapsible=1;marginBottom=0;rounded=0;shadow=0;strokeWidth=1;" parent="WIyWlLk6GJQsqaUBKTNV-1" vertex="1">
          <mxGeometry x="900" y="140" width="160" height="55" as="geometry">
            <mxRectangle x="220" y="120" width="160" height="26" as="alternateBounds" />
          </mxGeometry>
        </mxCell>
        <mxCell id="ldP8O9bozDBlURNdbHYL-21" value="+ name: char[ ]" style="text;align=left;verticalAlign=top;spacingLeft=4;spacingRight=4;overflow=hidden;rotatable=0;points=[[0,0.5],[1,0.5]];portConstraint=eastwest;" parent="ldP8O9bozDBlURNdbHYL-20" vertex="1">
          <mxGeometry y="26" width="160" height="26" as="geometry" />
        </mxCell>
        <mxCell id="ldP8O9bozDBlURNdbHYL-22" value="" style="endArrow=diamondThin;endFill=0;endSize=24;html=1;rounded=0;" parent="WIyWlLk6GJQsqaUBKTNV-1" edge="1">
          <mxGeometry width="160" relative="1" as="geometry">
            <mxPoint x="690" y="144.51999999999998" as="sourcePoint" />
            <mxPoint x="850" y="144.51999999999998" as="targetPoint" />
          </mxGeometry>
        </mxCell>
        <mxCell id="ldP8O9bozDBlURNdbHYL-23" value="" style="endArrow=block;endSize=16;endFill=0;html=1;rounded=0;" parent="WIyWlLk6GJQsqaUBKTNV-1" edge="1">
          <mxGeometry width="160" relative="1" as="geometry">
            <mxPoint x="690" y="114.51999999999998" as="sourcePoint" />
            <mxPoint x="850" y="114.51999999999998" as="targetPoint" />
          </mxGeometry>
        </mxCell>
        <mxCell id="ldP8O9bozDBlURNdbHYL-24" value="Wheel" style="swimlane;fontStyle=3;align=center;verticalAlign=top;childLayout=stackLayout;horizontal=1;startSize=26;horizontalStack=0;resizeParent=1;resizeLast=0;collapsible=1;marginBottom=0;rounded=0;shadow=0;strokeWidth=1;" parent="WIyWlLk6GJQsqaUBKTNV-1" vertex="1">
          <mxGeometry x="900" y="260" width="160" height="55" as="geometry">
            <mxRectangle x="220" y="120" width="160" height="26" as="alternateBounds" />
          </mxGeometry>
        </mxCell>
        <mxCell id="ldP8O9bozDBlURNdbHYL-25" value="+ name: char[ ]" style="text;align=left;verticalAlign=top;spacingLeft=4;spacingRight=4;overflow=hidden;rotatable=0;points=[[0,0.5],[1,0.5]];portConstraint=eastwest;" parent="ldP8O9bozDBlURNdbHYL-24" vertex="1">
          <mxGeometry y="26" width="160" height="26" as="geometry" />
        </mxCell>
        <mxCell id="ldP8O9bozDBlURNdbHYL-26" value="" style="endArrow=diamondThin;endFill=0;endSize=24;html=1;rounded=0;entryX=0.5;entryY=1;entryDx=0;entryDy=0;exitX=0.5;exitY=0;exitDx=0;exitDy=0;" parent="WIyWlLk6GJQsqaUBKTNV-1" source="ldP8O9bozDBlURNdbHYL-24" target="ldP8O9bozDBlURNdbHYL-20" edge="1">
          <mxGeometry width="160" relative="1" as="geometry">
            <mxPoint x="543" y="340" as="sourcePoint" />
            <mxPoint x="703" y="340" as="targetPoint" />
          </mxGeometry>
        </mxCell>
        <mxCell id="ldP8O9bozDBlURNdbHYL-27" value="" style="endArrow=block;endSize=16;endFill=0;html=1;rounded=0;entryX=0.5;entryY=1;entryDx=0;entryDy=0;exitX=0.5;exitY=0;exitDx=0;exitDy=0;" parent="WIyWlLk6GJQsqaUBKTNV-1" source="ldP8O9bozDBlURNdbHYL-20" target="ldP8O9bozDBlURNdbHYL-18" edge="1">
          <mxGeometry width="160" relative="1" as="geometry">
            <mxPoint x="853" y="120" as="sourcePoint" />
            <mxPoint x="1013" y="120" as="targetPoint" />
          </mxGeometry>
        </mxCell>
        <mxCell id="ldP8O9bozDBlURNdbHYL-28" value="" style="endArrow=diamondThin;endFill=1;endSize=24;html=1;rounded=0;" parent="WIyWlLk6GJQsqaUBKTNV-1" edge="1">
          <mxGeometry width="160" relative="1" as="geometry">
            <mxPoint x="690" y="174.51999999999998" as="sourcePoint" />
            <mxPoint x="850" y="174.51999999999998" as="targetPoint" />
          </mxGeometry>
        </mxCell>
        <mxCell id="ldP8O9bozDBlURNdbHYL-29" value="Motor" style="swimlane;fontStyle=3;align=center;verticalAlign=top;childLayout=stackLayout;horizontal=1;startSize=26;horizontalStack=0;resizeParent=1;resizeLast=0;collapsible=1;marginBottom=0;rounded=0;shadow=0;strokeWidth=1;" parent="WIyWlLk6GJQsqaUBKTNV-1" vertex="1">
          <mxGeometry x="1133" y="140" width="160" height="55" as="geometry">
            <mxRectangle x="220" y="120" width="160" height="26" as="alternateBounds" />
          </mxGeometry>
        </mxCell>
        <mxCell id="ldP8O9bozDBlURNdbHYL-30" value="+ power: int" style="text;align=left;verticalAlign=top;spacingLeft=4;spacingRight=4;overflow=hidden;rotatable=0;points=[[0,0.5],[1,0.5]];portConstraint=eastwest;" parent="ldP8O9bozDBlURNdbHYL-29" vertex="1">
          <mxGeometry y="26" width="160" height="26" as="geometry" />
        </mxCell>
        <mxCell id="ldP8O9bozDBlURNdbHYL-31" value="" style="endArrow=diamondThin;endFill=1;endSize=24;html=1;rounded=0;exitX=0.003;exitY=0.146;exitDx=0;exitDy=0;exitPerimeter=0;entryX=1.004;entryY=0.16;entryDx=0;entryDy=0;entryPerimeter=0;" parent="WIyWlLk6GJQsqaUBKTNV-1" source="ldP8O9bozDBlURNdbHYL-30" target="ldP8O9bozDBlURNdbHYL-21" edge="1">
          <mxGeometry width="160" relative="1" as="geometry">
            <mxPoint x="1060" y="49.5" as="sourcePoint" />
            <mxPoint x="1063" y="170" as="targetPoint" />
          </mxGeometry>
        </mxCell>
        <mxCell id="ldP8O9bozDBlURNdbHYL-32" value="" style="endArrow=open;endFill=1;endSize=12;html=1;rounded=0;" parent="WIyWlLk6GJQsqaUBKTNV-1" edge="1">
          <mxGeometry width="160" relative="1" as="geometry">
            <mxPoint x="690" y="84.51999999999998" as="sourcePoint" />
            <mxPoint x="850" y="84.51999999999998" as="targetPoint" />
          </mxGeometry>
        </mxCell>
        <mxCell id="ldP8O9bozDBlURNdbHYL-33" value="" style="endArrow=open;endSize=12;dashed=1;html=1;rounded=0;" parent="WIyWlLk6GJQsqaUBKTNV-1" edge="1">
          <mxGeometry width="160" relative="1" as="geometry">
            <mxPoint x="690" y="229.51999999999998" as="sourcePoint" />
            <mxPoint x="850" y="229.51999999999998" as="targetPoint" />
          </mxGeometry>
        </mxCell>
        <mxCell id="ldP8O9bozDBlURNdbHYL-34" value="" style="endArrow=block;dashed=1;endFill=0;endSize=12;html=1;rounded=0;" parent="WIyWlLk6GJQsqaUBKTNV-1" edge="1">
          <mxGeometry width="160" relative="1" as="geometry">
            <mxPoint x="690" y="201.82999999999993" as="sourcePoint" />
            <mxPoint x="850" y="201.82999999999993" as="targetPoint" />
          </mxGeometry>
        </mxCell>
        <mxCell id="ldP8O9bozDBlURNdbHYL-35" value="Animal&#xa;" style="swimlane;fontStyle=3;align=center;verticalAlign=top;childLayout=stackLayout;horizontal=1;startSize=30;horizontalStack=0;resizeParent=1;resizeLast=0;collapsible=1;marginBottom=0;rounded=0;shadow=0;strokeWidth=1;" parent="WIyWlLk6GJQsqaUBKTNV-1" vertex="1">
          <mxGeometry x="290" y="600" width="160" height="94" as="geometry">
            <mxRectangle x="430" y="120" width="160" height="26" as="alternateBounds" />
          </mxGeometry>
        </mxCell>
        <mxCell id="ldP8O9bozDBlURNdbHYL-36" value="- specie: String&#xa;" style="text;align=left;verticalAlign=top;spacingLeft=4;spacingRight=4;overflow=hidden;rotatable=0;points=[[0,0.5],[1,0.5]];portConstraint=eastwest;" parent="ldP8O9bozDBlURNdbHYL-35" vertex="1">
          <mxGeometry y="30" width="160" height="30" as="geometry" />
        </mxCell>
        <mxCell id="ldP8O9bozDBlURNdbHYL-37" value="" style="line;html=1;strokeWidth=1;align=left;verticalAlign=middle;spacingTop=-1;spacingLeft=3;spacingRight=3;rotatable=0;labelPosition=right;points=[];portConstraint=eastwest;" parent="ldP8O9bozDBlURNdbHYL-35" vertex="1">
          <mxGeometry y="60" width="160" height="8" as="geometry" />
        </mxCell>
        <mxCell id="ldP8O9bozDBlURNdbHYL-38" value="+ eat(): int" style="text;align=left;verticalAlign=top;spacingLeft=4;spacingRight=4;overflow=hidden;rotatable=0;points=[[0,0.5],[1,0.5]];portConstraint=eastwest;" parent="ldP8O9bozDBlURNdbHYL-35" vertex="1">
          <mxGeometry y="68" width="160" height="26" as="geometry" />
        </mxCell>
        <mxCell id="ldP8O9bozDBlURNdbHYL-39" value="Person" style="swimlane;fontStyle=3;align=center;verticalAlign=top;childLayout=stackLayout;horizontal=1;startSize=26;horizontalStack=0;resizeParent=1;resizeLast=0;collapsible=1;marginBottom=0;rounded=0;shadow=0;strokeWidth=1;" parent="WIyWlLk6GJQsqaUBKTNV-1" vertex="1">
          <mxGeometry x="90" y="600" width="160" height="94" as="geometry">
            <mxRectangle x="220" y="120" width="160" height="26" as="alternateBounds" />
          </mxGeometry>
        </mxCell>
        <mxCell id="ldP8O9bozDBlURNdbHYL-40" value="- name: String&#xa;- lastName: String" style="text;align=left;verticalAlign=top;spacingLeft=4;spacingRight=4;overflow=hidden;rotatable=0;points=[[0,0.5],[1,0.5]];portConstraint=eastwest;" parent="ldP8O9bozDBlURNdbHYL-39" vertex="1">
          <mxGeometry y="26" width="160" height="34" as="geometry" />
        </mxCell>
        <mxCell id="ldP8O9bozDBlURNdbHYL-41" value="" style="line;html=1;strokeWidth=1;align=left;verticalAlign=middle;spacingTop=-1;spacingLeft=3;spacingRight=3;rotatable=0;labelPosition=right;points=[];portConstraint=eastwest;" parent="ldP8O9bozDBlURNdbHYL-39" vertex="1">
          <mxGeometry y="60" width="160" height="8" as="geometry" />
        </mxCell>
        <mxCell id="ldP8O9bozDBlURNdbHYL-42" value="+ walk(): void" style="text;align=left;verticalAlign=top;spacingLeft=4;spacingRight=4;overflow=hidden;rotatable=0;points=[[0,0.5],[1,0.5]];portConstraint=eastwest;" parent="ldP8O9bozDBlURNdbHYL-39" vertex="1">
          <mxGeometry y="68" width="160" height="26" as="geometry" />
        </mxCell>
        <mxCell id="ldP8O9bozDBlURNdbHYL-43" value="LivingBeing" style="swimlane;fontStyle=3;align=center;verticalAlign=top;childLayout=stackLayout;horizontal=1;startSize=30;horizontalStack=0;resizeParent=1;resizeLast=0;collapsible=1;marginBottom=0;rounded=0;shadow=0;strokeWidth=1;" parent="WIyWlLk6GJQsqaUBKTNV-1" vertex="1">
          <mxGeometry x="200" y="440" width="160" height="94" as="geometry">
            <mxRectangle x="430" y="120" width="160" height="26" as="alternateBounds" />
          </mxGeometry>
        </mxCell>
        <mxCell id="ldP8O9bozDBlURNdbHYL-44" value="- bloodType: String&#xa;" style="text;align=left;verticalAlign=top;spacingLeft=4;spacingRight=4;overflow=hidden;rotatable=0;points=[[0,0.5],[1,0.5]];portConstraint=eastwest;" parent="ldP8O9bozDBlURNdbHYL-43" vertex="1">
          <mxGeometry y="30" width="160" height="30" as="geometry" />
        </mxCell>
        <mxCell id="ldP8O9bozDBlURNdbHYL-45" value="" style="line;html=1;strokeWidth=1;align=left;verticalAlign=middle;spacingTop=-1;spacingLeft=3;spacingRight=3;rotatable=0;labelPosition=right;points=[];portConstraint=eastwest;" parent="ldP8O9bozDBlURNdbHYL-43" vertex="1">
          <mxGeometry y="60" width="160" height="8" as="geometry" />
        </mxCell>
        <mxCell id="ldP8O9bozDBlURNdbHYL-46" value="+ breathe(): void" style="text;align=left;verticalAlign=top;spacingLeft=4;spacingRight=4;overflow=hidden;rotatable=0;points=[[0,0.5],[1,0.5]];portConstraint=eastwest;" parent="ldP8O9bozDBlURNdbHYL-43" vertex="1">
          <mxGeometry y="68" width="160" height="26" as="geometry" />
        </mxCell>
        <mxCell id="ldP8O9bozDBlURNdbHYL-47" value="&lt;div&gt;&lt;b&gt;Multiplicity&lt;/b&gt;&lt;/div&gt;1: one&lt;div&gt;*: many&lt;/div&gt;&lt;div&gt;0: zero&lt;/div&gt;&lt;div&gt;0..*: from zero to many&lt;/div&gt;&lt;div&gt;1..*: from one to many&lt;/div&gt;&lt;div&gt;n..m: from &lt;i&gt;n &lt;/i&gt;to &lt;i&gt;m&lt;/i&gt;&lt;/div&gt;" style="text;html=1;align=center;verticalAlign=middle;resizable=0;points=[];autosize=1;strokeColor=none;fillColor=none;" parent="WIyWlLk6GJQsqaUBKTNV-1" vertex="1">
          <mxGeometry x="50" y="315" width="140" height="110" as="geometry" />
        </mxCell>
        <mxCell id="ldP8O9bozDBlURNdbHYL-48" value="" style="endArrow=block;endSize=16;endFill=0;html=1;rounded=0;entryX=0.864;entryY=1.031;entryDx=0;entryDy=0;entryPerimeter=0;exitX=0.31;exitY=-0.013;exitDx=0;exitDy=0;exitPerimeter=0;" parent="WIyWlLk6GJQsqaUBKTNV-1" source="ldP8O9bozDBlURNdbHYL-35" target="ldP8O9bozDBlURNdbHYL-46" edge="1">
          <mxGeometry width="160" relative="1" as="geometry">
            <mxPoint x="340" y="580" as="sourcePoint" />
            <mxPoint x="500" y="580" as="targetPoint" />
          </mxGeometry>
        </mxCell>
        <mxCell id="ldP8O9bozDBlURNdbHYL-49" value="" style="endArrow=block;endSize=16;endFill=0;html=1;rounded=0;entryX=0.864;entryY=1.031;entryDx=0;entryDy=0;entryPerimeter=0;exitX=0.31;exitY=-0.013;exitDx=0;exitDy=0;exitPerimeter=0;" parent="WIyWlLk6GJQsqaUBKTNV-1" edge="1">
          <mxGeometry width="160" relative="1" as="geometry">
            <mxPoint x="232" y="598" as="sourcePoint" />
            <mxPoint x="230" y="534" as="targetPoint" />
          </mxGeometry>
        </mxCell>
        <mxCell id="ldP8O9bozDBlURNdbHYL-50" value="Brain" style="swimlane;fontStyle=3;align=center;verticalAlign=top;childLayout=stackLayout;horizontal=1;startSize=30;horizontalStack=0;resizeParent=1;resizeLast=0;collapsible=1;marginBottom=0;rounded=0;shadow=0;strokeWidth=1;" parent="WIyWlLk6GJQsqaUBKTNV-1" vertex="1">
          <mxGeometry x="500" y="440" width="160" height="94" as="geometry">
            <mxRectangle x="430" y="120" width="160" height="26" as="alternateBounds" />
          </mxGeometry>
        </mxCell>
        <mxCell id="ldP8O9bozDBlURNdbHYL-51" value="- specie: String&#xa;" style="text;align=left;verticalAlign=top;spacingLeft=4;spacingRight=4;overflow=hidden;rotatable=0;points=[[0,0.5],[1,0.5]];portConstraint=eastwest;" parent="ldP8O9bozDBlURNdbHYL-50" vertex="1">
          <mxGeometry y="30" width="160" height="30" as="geometry" />
        </mxCell>
        <mxCell id="ldP8O9bozDBlURNdbHYL-52" value="" style="line;html=1;strokeWidth=1;align=left;verticalAlign=middle;spacingTop=-1;spacingLeft=3;spacingRight=3;rotatable=0;labelPosition=right;points=[];portConstraint=eastwest;" parent="ldP8O9bozDBlURNdbHYL-50" vertex="1">
          <mxGeometry y="60" width="160" height="8" as="geometry" />
        </mxCell>
        <mxCell id="ldP8O9bozDBlURNdbHYL-53" value="+ eat(): int" style="text;align=left;verticalAlign=top;spacingLeft=4;spacingRight=4;overflow=hidden;rotatable=0;points=[[0,0.5],[1,0.5]];portConstraint=eastwest;" parent="ldP8O9bozDBlURNdbHYL-50" vertex="1">
          <mxGeometry y="68" width="160" height="26" as="geometry" />
        </mxCell>
        <mxCell id="ldP8O9bozDBlURNdbHYL-54" value="" style="endArrow=diamondThin;endFill=1;endSize=24;html=1;rounded=0;entryX=1;entryY=0.5;entryDx=0;entryDy=0;exitX=0;exitY=0.5;exitDx=0;exitDy=0;" parent="WIyWlLk6GJQsqaUBKTNV-1" source="ldP8O9bozDBlURNdbHYL-51" target="ldP8O9bozDBlURNdbHYL-44" edge="1">
          <mxGeometry width="160" relative="1" as="geometry">
            <mxPoint x="400" y="425" as="sourcePoint" />
            <mxPoint x="560" y="425" as="targetPoint" />
          </mxGeometry>
        </mxCell>
        <mxCell id="ldP8O9bozDBlURNdbHYL-55" value="1" style="text;html=1;align=center;verticalAlign=middle;resizable=0;points=[];autosize=1;strokeColor=none;fillColor=none;" parent="WIyWlLk6GJQsqaUBKTNV-1" vertex="1">
          <mxGeometry x="355" y="450" width="30" height="30" as="geometry" />
        </mxCell>
        <mxCell id="ldP8O9bozDBlURNdbHYL-56" value="brainList" style="text;html=1;align=center;verticalAlign=middle;resizable=0;points=[];autosize=1;strokeColor=none;fillColor=none;" parent="WIyWlLk6GJQsqaUBKTNV-1" vertex="1">
          <mxGeometry x="430" y="450" width="70" height="30" as="geometry" />
        </mxCell>
        <mxCell id="ldP8O9bozDBlURNdbHYL-57" value="(When multiplicity is more than 1)" style="text;html=1;align=center;verticalAlign=middle;resizable=0;points=[];autosize=1;strokeColor=none;fillColor=none;" parent="WIyWlLk6GJQsqaUBKTNV-1" vertex="1">
          <mxGeometry x="365" y="380" width="200" height="30" as="geometry" />
        </mxCell>
        <mxCell id="ldP8O9bozDBlURNdbHYL-58" value="" style="endArrow=block;endFill=1;html=1;edgeStyle=orthogonalEdgeStyle;align=left;verticalAlign=top;rounded=0;entryX=0.481;entryY=-0.032;entryDx=0;entryDy=0;entryPerimeter=0;" parent="WIyWlLk6GJQsqaUBKTNV-1" source="ldP8O9bozDBlURNdbHYL-57" target="ldP8O9bozDBlURNdbHYL-56" edge="1">
          <mxGeometry x="-1" relative="1" as="geometry">
            <mxPoint x="700" y="380" as="sourcePoint" />
            <mxPoint x="800" y="340" as="targetPoint" />
            <Array as="points">
              <mxPoint x="464" y="430" />
            </Array>
          </mxGeometry>
        </mxCell>
        <mxCell id="ldP8O9bozDBlURNdbHYL-59" value="IESS" style="swimlane;fontStyle=3;align=center;verticalAlign=top;childLayout=stackLayout;horizontal=1;startSize=30;horizontalStack=0;resizeParent=1;resizeLast=0;collapsible=1;marginBottom=0;rounded=0;shadow=0;strokeWidth=1;" parent="WIyWlLk6GJQsqaUBKTNV-1" vertex="1">
          <mxGeometry x="90" y="800" width="160" height="94" as="geometry">
            <mxRectangle x="430" y="120" width="160" height="26" as="alternateBounds" />
          </mxGeometry>
        </mxCell>
        <mxCell id="ldP8O9bozDBlURNdbHYL-60" value="- specie: String&#xa;" style="text;align=left;verticalAlign=top;spacingLeft=4;spacingRight=4;overflow=hidden;rotatable=0;points=[[0,0.5],[1,0.5]];portConstraint=eastwest;" parent="ldP8O9bozDBlURNdbHYL-59" vertex="1">
          <mxGeometry y="30" width="160" height="30" as="geometry" />
        </mxCell>
        <mxCell id="ldP8O9bozDBlURNdbHYL-61" value="" style="line;html=1;strokeWidth=1;align=left;verticalAlign=middle;spacingTop=-1;spacingLeft=3;spacingRight=3;rotatable=0;labelPosition=right;points=[];portConstraint=eastwest;" parent="ldP8O9bozDBlURNdbHYL-59" vertex="1">
          <mxGeometry y="60" width="160" height="8" as="geometry" />
        </mxCell>
        <mxCell id="ldP8O9bozDBlURNdbHYL-62" value="+ eat(): int" style="text;align=left;verticalAlign=top;spacingLeft=4;spacingRight=4;overflow=hidden;rotatable=0;points=[[0,0.5],[1,0.5]];portConstraint=eastwest;" parent="ldP8O9bozDBlURNdbHYL-59" vertex="1">
          <mxGeometry y="68" width="160" height="26" as="geometry" />
        </mxCell>
        <mxCell id="ldP8O9bozDBlURNdbHYL-63" value="Affiliation" style="text;html=1;align=center;verticalAlign=middle;resizable=0;points=[];autosize=1;strokeColor=none;fillColor=none;" parent="WIyWlLk6GJQsqaUBKTNV-1" vertex="1">
          <mxGeometry x="160" y="728" width="70" height="30" as="geometry" />
        </mxCell>
        <mxCell id="ldP8O9bozDBlURNdbHYL-64" value="affiliated" style="text;html=1;align=center;verticalAlign=middle;resizable=0;points=[];autosize=1;strokeColor=none;fillColor=none;" parent="WIyWlLk6GJQsqaUBKTNV-1" vertex="1">
          <mxGeometry x="85" y="698" width="70" height="30" as="geometry" />
        </mxCell>
        <mxCell id="ldP8O9bozDBlURNdbHYL-65" value="1" style="text;html=1;align=center;verticalAlign=middle;resizable=0;points=[];autosize=1;strokeColor=none;fillColor=none;" parent="WIyWlLk6GJQsqaUBKTNV-1" vertex="1">
          <mxGeometry x="130" y="770" width="30" height="30" as="geometry" />
        </mxCell>
        <mxCell id="ldP8O9bozDBlURNdbHYL-66" value="insurance" style="text;html=1;align=center;verticalAlign=middle;resizable=0;points=[];autosize=1;strokeColor=none;fillColor=none;" parent="WIyWlLk6GJQsqaUBKTNV-1" vertex="1">
          <mxGeometry x="155" y="770" width="80" height="30" as="geometry" />
        </mxCell>
        <mxCell id="ldP8O9bozDBlURNdbHYL-67" value="LivingBeing" style="text;html=1;align=center;verticalAlign=middle;resizable=0;points=[];autosize=1;strokeColor=none;fillColor=none;" parent="WIyWlLk6GJQsqaUBKTNV-1" vertex="1">
          <mxGeometry x="350" y="488" width="90" height="30" as="geometry" />
        </mxCell>
        <mxCell id="ldP8O9bozDBlURNdbHYL-68" value="" style="endArrow=none;html=1;edgeStyle=orthogonalEdgeStyle;rounded=0;exitX=1.056;exitY=-0.14;exitDx=0;exitDy=0;exitPerimeter=0;entryX=0.431;entryY=0.007;entryDx=0;entryDy=0;entryPerimeter=0;" parent="WIyWlLk6GJQsqaUBKTNV-1" source="ldP8O9bozDBlURNdbHYL-64" target="ldP8O9bozDBlURNdbHYL-59" edge="1">
          <mxGeometry relative="1" as="geometry">
            <mxPoint x="130" y="830" as="sourcePoint" />
            <mxPoint x="290" y="830" as="targetPoint" />
          </mxGeometry>
        </mxCell>
      </root>
    </mxGraphModel>
  </diagram>
</mxfile>
